HIERARCHY
ROOT hip
{
  OFFSET 0 0 0
  CHANNELS 6 Xposition Yposition Zposition Zrotation Yrotation Xrotation
  JOINT abdomen
  {
    OFFSET 0 20.6881 -0.73152
    CHANNELS 3 Zrotation Xrotation Yrotation
    JOINT chest
    {
      OFFSET 0 11.7043 -0.48768
      CHANNELS 3 Zrotation Xrotation Yrotation
      JOINT neck
      {
        OFFSET 0 22.1894 -2.19456
        CHANNELS 3 Zrotation Xrotation Yrotation
        JOINT head
        {
          OFFSET -0.24384 7.07133 1.2192
          CHANNELS 3 Zrotation Xrotation Yrotation
          JOINT leftEye
          {
            OFFSET 4.14528 8.04674 8.04672
            CHANNELS 3 Zrotation Xrotation Yrotation
            End Site
            {
              OFFSET 1 0 0
            }
          }
          JOINT rightEye
          {
            OFFSET -3.6576 8.04674 8.04672
            CHANNELS 3 Zrotation Xrotation Yrotation
            End Site
            {
              OFFSET 1 0 0
            }
          }
        }
      }
      JOINT rCollar
      {
        OFFSET -2.68224 19.2634 -4.8768
        CHANNELS 3 Zrotation Xrotation Yrotation
        JOINT rShldr
        {
          OFFSET -8.77824 -1.95073 1.46304
          CHANNELS 3 Zrotation Xrotation Yrotation
          JOINT rForeArm
          {
            OFFSET -28.1742 -1.7115 0.48768
            CHANNELS 3 Zrotation Xrotation Yrotation
            JOINT rHand
            {
              OFFSET -22.5879 0.773209 7.07136
              CHANNELS 3 Zrotation Xrotation Yrotation
              JOINT rThumb1
              {
                OFFSET -1.2192 -0.487915 3.41376
                CHANNELS 3 Zrotation Xrotation Yrotation
                JOINT rThumb2
                {
                  OFFSET -3.37035 -0.52449 3.41376
                  CHANNELS 3 Zrotation Xrotation Yrotation
                  End Site
                  {
                    OFFSET -1.78271 -1.18214 1.43049
                  }
                }
              }
              JOINT rIndex1
              {
                OFFSET -7.75947 0.938293 5.60832
                CHANNELS 3 Zrotation Xrotation Yrotation
                JOINT rIndex2
                {
                  OFFSET -2.54057 -0.884171 1.56538
                  CHANNELS 3 Zrotation Xrotation Yrotation
                  End Site
                  {
                    OFFSET -1.62519 -0.234802 1.16502
                  }
                }
              }
              JOINT rMid1
              {
                OFFSET -8.24714 1.18213 3.41376
                CHANNELS 3 Zrotation Xrotation Yrotation
                JOINT rMid2
                {
                  OFFSET -3.10165 -0.590103 1.0647
                  CHANNELS 3 Zrotation Xrotation Yrotation
                  End Site
                  {
                    OFFSET -2.48547 -0.328903 0.83742
                  }
                }
              }
              JOINT rRing1
              {
                OFFSET -8.82822 0.546677 1.51678
                CHANNELS 3 Zrotation Xrotation Yrotation
                JOINT rRing2
                {
                  OFFSET -2.60934 -0.819778 -0.0198488
                  CHANNELS 3 Zrotation Xrotation Yrotation
                  End Site
                  {
                    OFFSET -2.33842 -0.294052 0.168128
                  }
                }
              }
              JOINT rPinky1
              {
                OFFSET -8.27202 -0.0477905 -0.4584
                CHANNELS 3 Zrotation Xrotation Yrotation
                JOINT rPinky2
                {
                  OFFSET -1.82734 -0.647385 -0.700984
                  CHANNELS 3 Zrotation Xrotation Yrotation
                  End Site
                  {
                    OFFSET -1.69225 -0.51767 -0.607171
                  }
                }
              }
            }
          }
        }
      }
      JOINT lCollar
      {
        OFFSET 2.68224 19.2634 -4.8768
        CHANNELS 3 Zrotation Xrotation Yrotation
        JOINT lShldr
        {
          OFFSET 8.77824 -1.95073 1.46304
          CHANNELS 3 Zrotation Xrotation Yrotation
          JOINT lForeArm
          {
            OFFSET 28.1742 -1.7115 0.48768
            CHANNELS 3 Zrotation Xrotation Yrotation
            JOINT lHand
            {
              OFFSET 22.5879 0.773209 7.07136
              CHANNELS 3 Zrotation Xrotation Yrotation
              JOINT lThumb1
              {
                OFFSET 1.2192 -0.487915 3.41376
                CHANNELS 3 Zrotation Xrotation Yrotation
                JOINT lThumb2
                {
                  OFFSET 3.37035 -0.52449 3.41376
                  CHANNELS 3 Zrotation Xrotation Yrotation
                  End Site
                  {
                    OFFSET 1.78271 -1.18214 1.43049
                  }
                }
              }
              JOINT lIndex1
              {
                OFFSET 7.75947 0.938293 5.60832
                CHANNELS 3 Zrotation Xrotation Yrotation
                JOINT lIndex2
                {
                  OFFSET 2.54057 -0.884171 1.56538
                  CHANNELS 3 Zrotation Xrotation Yrotation
                  End Site
                  {
                    OFFSET 1.62519 -0.234802 1.16502
                  }
                }
              }
              JOINT lMid1
              {
                OFFSET 8.24714 1.18213 3.41376
                CHANNELS 3 Zrotation Xrotation Yrotation
                JOINT lMid2
                {
                  OFFSET 3.10165 -0.590103 1.0647
                  CHANNELS 3 Zrotation Xrotation Yrotation
                  End Site
                  {
                    OFFSET 2.48547 -0.328903 0.83742
                  }
                }
              }
              JOINT lRing1
              {
                OFFSET 8.82822 0.546677 1.51678
                CHANNELS 3 Zrotation Xrotation Yrotation
                JOINT lRing2
                {
                  OFFSET 2.60934 -0.819778 -0.0198488
                  CHANNELS 3 Zrotation Xrotation Yrotation
                  End Site
                  {
                    OFFSET 2.33842 -0.294052 0.168128
                  }
                }
              }
              JOINT lPinky1
              {
                OFFSET 8.27202 -0.0477905 -0.4584
                CHANNELS 3 Zrotation Xrotation Yrotation
                JOINT lPinky2
                {
                  OFFSET 1.82734 -0.647385 -0.700984
                  CHANNELS 3 Zrotation Xrotation Yrotation
                  End Site
                  {
                    OFFSET 1.69225 -0.51767 -0.607171
                  }
                }
              }
            }
          }
        }
      }
    }
  }
  JOINT rButtock
  {
    OFFSET -8.77824 4.35084 1.2192
    CHANNELS 3 Zrotation Xrotation Yrotation
    JOINT rThigh
    {
      OFFSET 0 -1.70687 -2.19456
      CHANNELS 3 Zrotation Xrotation Yrotation
      JOINT rShin
      {
        OFFSET 0 -36.8199 0.73152
        CHANNELS 3 Zrotation Xrotation Yrotation
        JOINT rFoot
        {
          OFFSET 0.73152 -45.1104 -5.12064
          CHANNELS 3 Zrotation Xrotation Yrotation
          End Site
          {
            OFFSET -1.1221 -3.69964 12.103
          }
        }
      }
    }
  }
  JOINT lButtock
  {
    OFFSET 8.77824 4.35084 1.2192
    CHANNELS 3 Zrotation Xrotation Yrotation
    JOINT lThigh
    {
      OFFSET 0 -1.70687 -2.19456
      CHANNELS 3 Zrotation Xrotation Yrotation
      JOINT lShin
      {
        OFFSET 0 -36.8199 0.73152
        CHANNELS 3 Zrotation Xrotation Yrotation
        JOINT lFoot
        {
          OFFSET -0.73152 -45.1104 -5.12064
          CHANNELS 3 Zrotation Xrotation Yrotation
          End Site
          {
            OFFSET 1.1221 -3.69964 12.103
          }
        }
      }
    }
  }
}
MOTION
Frames:	8
Frame Time:	0.03333
0.0 0.0 0.0 0.0 0.0 0.0 0.0 0.0 0.0 0.0 0.0 0.0 0.0 0.0 0.0 0.0 0.0 0.0 0.0 0.0 0.0 0.0 0.0 0.0 0.0 0.0 0.0 0.0 0.0 0.0 0.0 0.0 0.0 0.0 0.0 0.0 0.0 0.0 0.0 0.0 0.0 0.0 0.0 0.0 0.0 0.0 0.0 0.0 0.0 0.0 0.0 0.0 0.0 0.0 0.0 0.0 0.0 0.0 0.0 0.0 0.0 0.0 0.0 0.0 0.0 0.0 0.0 0.0 0.0 0.0 0.0 0.0 0.0 0.0 0.0 0.0 0.0 0.0 0.0 0.0 0.0 0.0 0.0 0.0 0.0 0.0 0.0 0.0 0.0 0.0 0.0 0.0 0.0 0.0 0.0 0.0 0.0 0.0 0.0 0.0 0.0 0.0 0.0 0.0 0.0 0.0 0.0 0.0 0.0 0.0 0.0 0.0 0.0 0.0 0.0 0.0 0.0 0.0 0.0 0.0 0.0 0.0 0.0 0.0 0.0 0.0 0.0 0.0 0.0 0.0 0.0 0.0
-4.1213 56.8674 -2.1706 175.028483 -37.076414 -169.123301 -13.220196 16.727168 -59.185128 8.869962 -2.493638 70.325516 8.11655 28.419981 137.841916 -31.578159 36.031155 -129.347347 -0.000425 -0.0 0.002756 -0.000463 0.0 -0.001385 -3.261784 15.955561 4.048634 43.049413 36.874652 34.254507 174.63207 31.367569 90.229724 163.840168 -25.503661 142.801226 6.4455 -6.436204 -0.634018 -148.124759 -60.729341 125.578687 99.858929 -76.144133 49.957453 4.651925 19.434054 -1.66766 -153.539568 13.104264 139.015264 -164.39081 -8.329722 143.312958 -145.116171 2.986594 179.933932 11.868929 38.545508 -4.615199 -147.005875 18.097814 -143.426089 -167.095269 64.801385 -145.35129 3.448647 16.689249 -4.268709 -30.453919 40.164127 -45.958264 -179.342947 56.31545 -117.591933 -158.242205 -33.311428 -140.40746 -13.651361 -13.589949 0.481476 -18.732251 -51.4307 26.099878 102.629704 36.98407 -86.737615 162.479427 -7.365939 -115.566975 160.388117 -5.788148 -143.109771 167.596743 -17.838892 -143.842452 0.007605 3.677223 -1.155494 152.639322 27.26151 -167.613796 111.406287 -40.937856 109.458208 -9.233599 17.220817 -2.997201 -179.781004 75.750472 -0.16896 163.818606 35.554527 -175.146921 145.673548 -63.38197 -104.950373 -10.835547 -38.739592 68.975013 -0.001813 -0.000188 -0.000708 16.881312 -52.863562 50.524427 73.737917 63.258243 -22.375085 97.473399 -34.394853 1.274985
-6.3584000000000005 56.9398 -3.7215 174.283317 -36.659983 -170.247744 -17.401523 19.477423 18.72356 1.768122 -11.171963 -7.010141 5.27474 30.718308 156.923643 -22.263621 44.590337 -148.439415 -0.000674 -0.0 0.004077 -0.000861 0.0 -0.00402 4.083106 -39.691351 -7.644262 -107.16496 -19.574368 -157.790612 -176.789579 -26.735339 -122.694867 -8.660562 35.641706 2.628786 -2.131182 2.091657 0.364323 -23.50532 20.033892 21.756476 -155.480143 -24.832547 122.198892 -162.210577 -19.183613 119.576866 -177.230622 -53.255061 143.497985 10.688984 -22.953612 -1.227915 -145.099053 4.369607 179.497376 -150.51377 78.733855 164.612964 -137.519482 -8.310012 -134.790395 -153.569981 31.781274 -145.46227 51.103405 65.926547 -53.872848 83.026121 22.675825 -91.419675 -3.742413 -1.511837 66.157657 -156.625162 -36.362713 -138.986505 4.438029 4.318637 -0.844733 -23.801081 -34.025917 12.452425 18.216334 23.230206 -12.629631 -64.163873 -55.099148 -20.052996 4.001139 10.858039 -2.468221 5.183005 21.910758 -4.59447 0.192095 -7.043156 2.226974 -8.39516 24.250155 -3.529718 124.567916 -29.37202 122.343476 -18.61415 47.497381 -6.722063 0.000419 0.000262 0.000272 -13.182568 -43.620789 1.386841 176.728569 64.361052 90.009372 12.711675 -11.010625 87.475501 -179.992009 75.750159 -0.00772 -168.537577 24.974055 -63.960374 -83.878038 18.925635 150.338225 36.710937 -40.438454 -23.815933
-8.8263 56.926500000000004 -5.4916 173.949418 -35.949017 -171.686166 -17.532033 20.829989 -2.521568 4.698463 -9.963811 14.320058 -11.620826 22.58998 -77.739917 42.445733 6.543619 76.006212 0.004536 0.0 0.00052 -0.00093 -0.0 0.000459 1.857691 -12.951013 -2.668874 65.301042 13.530921 1.55597 178.032483 -17.252037 84.808605 162.222622 -28.768739 141.840551 -161.506074 0.792109 89.138193 -136.046877 5.277206 66.535538 167.647281 -66.790928 108.5594 -16.92706 42.215847 11.354791 -146.098186 28.195221 133.353883 1.712647 4.66818 1.004852 -145.108029 -0.931974 -178.834187 11.961832 28.279552 -5.78829 10.631219 35.032296 9.12572 -22.373998 -39.089868 -22.590841 151.242287 17.662172 -156.513578 -140.536484 -3.466572 -164.737586 -173.74957 -6.742815 -109.62013 -163.118627 -24.660566 -143.357863 175.698596 -13.335863 -89.770425 -94.421973 -68.877867 -72.019196 -73.646405 -73.609676 -26.758612 -10.499754 10.507503 3.823147 1.194284 3.408359 -0.686333 -14.06801 -32.557002 1.270651 0.062149 -3.56724 1.122197 86.464352 -86.74897 108.440578 -12.925457 44.103031 -10.723073 -6.130048 13.341304 -3.220403 -179.997628 75.751333 -0.001886 174.843388 22.38193 -138.545099 -119.617392 -46.245027 82.225749 53.243186 -44.988486 -22.480141 -179.99959 75.751333 -0.000359 -171.635401 29.592121 64.059611 85.355285 34.501067 0.861812 53.507276 -66.653497 -24.026497
-11.5939 56.8787 -7.4959999999999996 173.162284 -35.325452 -172.936837 -16.764406 17.438547 -137.283369 2.250649 6.002094 148.251541 -6.261153 13.939663 -20.355125 21.18587 -24.243669 25.086243 -0.002136 -0.0 0.00046 0.003588 0.0 0.000419 1.511879 -10.219445 -2.135095 -106.720712 -6.255626 174.978191 2.691338 23.376567 -90.479474 159.543637 -33.850892 140.011556 22.472885 -21.846602 0.922619 2.245176 -20.875654 -19.052152 9.875773 -17.428172 -4.458483 -13.136188 30.860174 11.336769 -14.402888 31.457652 10.439933 -14.133472 37.597825 11.358752 -145.122752 1.123601 -179.480191 10.974832 11.309382 -7.65266 -147.778627 20.755038 -144.08136 -2.483836 -10.557664 -5.733157 158.920013 -57.758326 -172.793772 85.293421 -46.831732 77.419266 -72.524728 43.204744 112.114913 -179.374144 22.045 -148.407689 3.964534 3.863593 -0.739097 94.886948 14.50552 -87.305095 -12.08722 -21.54413 5.088165 -162.364302 -52.086972 -94.210957 160.514799 -6.17914 -143.170808 -11.115361 -23.670902 1.153803 145.120352 0.553364 179.303348 -6.889047 76.476799 -4.954044 2.483411 -6.093726 2.309274 31.283713 -45.994496 31.88938 -0.007534 0.000687 -0.00667 -2.218384 -59.813986 176.192399 161.645498 -63.366607 -108.230174 7.464914 -28.103373 83.486689 0.001101 -0.000175 0.001556 9.939496 -41.909237 -176.906884 77.561402 -71.679562 -24.701915 160.089183 -24.592841 37.563205
-14.521999999999998 56.9072 -9.6533 171.676115 -35.130751 -174.163169 -16.858213 20.927131 -73.888557 8.422993 -0.909909 84.687208 6.974152 29.89423 146.006188 -26.088454 37.924434 -136.874703 -0.002997 0.0 -0.000788 0.002899 -0.0 -0.004866 -57.443924 67.025449 60.292122 60.995954 -21.156732 74.012985 -8.761697 -8.560971 54.475693 -4.321592 24.135755 1.620002 8.685948 -8.678766 -0.685209 -68.03496 31.821493 58.913626 -32.197526 33.608078 24.128193 -163.127665 -10.150264 111.289272 -165.011409 -20.488119 144.831873 15.939913 -36.813225 -0.422502 0.002349 0.452125 0.144829 -156.394831 -20.402937 174.251671 13.625537 46.875024 11.157785 -163.139092 61.798922 -149.285856 150.742681 19.518511 -155.93443 46.406448 4.995952 -17.275777 -21.19595 11.644073 70.607491 -168.732388 -12.709219 -145.666017 -46.161209 -38.754321 -10.197875 26.834237 15.717415 1.347769 7.125136 10.600135 -4.455744 17.382964 31.16644 -12.307812 163.918761 -16.967527 -144.523995 172.191723 -30.944921 -143.686265 -0.003492 0.922276 -0.291112 152.131206 28.92219 -167.268216 1.040921 -2.645172 0.963395 150.613144 23.274553 146.166521 179.999866 75.750151 0.000303 -178.605939 13.469865 0.026032 -164.192097 69.507358 64.725639 125.867704 61.614953 -32.849346 179.984082 75.749407 0.011386 -173.994789 40.323648 86.840599 81.043428 27.63466 -168.527891 -75.760931 81.932625 -177.72691
-17.44 57.187 -11.8446 169.810839 -36.094695 -175.459999 -17.609098 21.054897 -104.630542 6.674223 2.874699 114.535718 -9.699146 29.605615 -115.746073 35.449646 29.529312 108.699906 0.002949 -0.0 -0.002269 -0.002775 0.0 -0.002285 -159.117291 -54.244017 171.859652 118.787459 41.947118 -126.088815 -56.940654 31.253856 87.750248 7.124705 -11.59542 3.759831 -163.918019 -1.595198 89.4921 -153.51642 -0.161642 77.51376 171.463254 -64.821034 111.293993 147.046881 -65.975352 84.27341 170.661214 -68.390074 135.754892 -16.493716 39.957851 13.179037 -144.401296 -14.585803 -174.422224 -67.341925 -78.121515 -90.017713 -148.187554 22.203022 -144.425997 -148.064211 12.608735 -141.922027 -1.973271 -13.906898 2.853698 -61.132494 10.315095 -0.670341 11.977964 18.580389 -38.038889 1.954269 15.327006 -1.229549 6.799388 6.548302 -1.422425 129.805599 -28.698244 -112.30473 63.461208 42.988759 -51.739282 -9.854941 -5.836752 4.186855 -174.935223 -64.502473 -138.911622 -43.249749 -69.757285 -17.903112 1.045862 -17.792223 5.809395 -6.95124 37.407649 -6.209032 135.620102 -12.298129 132.994568 158.71174 47.923903 146.937842 0.002188 -1.2e-05 0.002919 5.543014 -65.133464 -4.097363 -125.96171 81.007458 153.396395 -154.513481 -7.730291 45.941574 0.011251 0.001565 0.009594 3.912501 -29.568726 -164.97678 76.159057 -73.522321 132.228447 96.189561 -6.078798 150.113497
-20.0138 57.6476 -13.9907 167.698527 -38.484763 -176.527868 -20.968472 25.042264 18.997299 0.987091 -10.570628 -9.282628 8.219746 19.228909 72.423362 -31.602772 -4.476589 -73.807446 0.004014 -0.0 -0.003183 -0.001543 -0.0 0.000882 -158.067752 -64.680471 175.064481 -64.791398 -35.553538 -66.094925 -173.332446 -24.737364 -124.493326 -7.471505 33.908734 2.46643 169.83676 -26.428124 86.874856 122.190766 -71.462787 94.567734 1.381614 -2.272628 -0.760808 -155.534011 -5.442062 109.920683 -18.502462 37.070907 13.933275 -83.54436 64.293554 75.631452 -0.003293 -0.339039 -0.106246 11.171235 -14.524815 -1.798751 -71.727726 -51.811676 -70.237274 -123.530804 -33.248075 -122.707843 151.79555 15.487278 -157.162201 -136.357392 -20.366389 -164.483514 163.434258 26.899611 -106.18958 -152.055497 -45.52635 -133.86972 -0.530163 -0.524113 0.079857 -107.081113 -83.554081 -36.025993 37.641642 36.38436 -28.810205 163.775996 -10.657926 -111.623962 0.308073 0.894519 -0.171822 169.991611 -25.424818 -144.316237 0.206538 10.108011 -3.202762 156.610976 -7.424018 -172.811196 147.887516 21.14435 144.173036 -5.175483 8.091725 -0.298238 -0.001544 -0.000737 -0.002325 3.153439 -66.721158 11.994731 106.572655 75.487321 -6.427704 -126.242769 -47.757775 147.730407 -0.003001 -0.001174 -0.001026 0.943761 -23.579927 177.955464 62.460389 -69.43868 -33.37066 101.279334 -60.224957 21.582025
